<svg width="220" height="189" viewBox="0 0 220 189" fill="none" xmlns="http://www.w3.org/2000/svg">
<rect width="220" height="189" fill="white"/>
<path d="M77.7726 116.455V131H75.4288L68.5751 121.092H68.4544V131H65.8194V116.455H68.1774L75.024 126.369H75.1518V116.455H77.7726ZM85.2885 131.213C84.2232 131.213 83.2999 130.979 82.5186 130.51C81.7374 130.041 81.1313 129.385 80.7005 128.543C80.2743 127.7 80.0613 126.715 80.0613 125.588C80.0613 124.461 80.2743 123.474 80.7005 122.626C81.1313 121.779 81.7374 121.121 82.5186 120.652C83.2999 120.183 84.2232 119.949 85.2885 119.949C86.3539 119.949 87.2772 120.183 88.0584 120.652C88.8397 121.121 89.4434 121.779 89.8695 122.626C90.3004 123.474 90.5158 124.461 90.5158 125.588C90.5158 126.715 90.3004 127.7 89.8695 128.543C89.4434 129.385 88.8397 130.041 88.0584 130.51C87.2772 130.979 86.3539 131.213 85.2885 131.213ZM85.3027 129.153C85.8804 129.153 86.3633 128.995 86.7516 128.678C87.1399 128.356 87.4287 127.925 87.6181 127.385C87.8122 126.845 87.9093 126.244 87.9093 125.581C87.9093 124.913 87.8122 124.31 87.6181 123.77C87.4287 123.225 87.1399 122.792 86.7516 122.47C86.3633 122.148 85.8804 121.987 85.3027 121.987C84.7109 121.987 84.2185 122.148 83.8255 122.47C83.4372 122.792 83.146 123.225 82.9519 123.77C82.7625 124.31 82.6678 124.913 82.6678 125.581C82.6678 126.244 82.7625 126.845 82.9519 127.385C83.146 127.925 83.4372 128.356 83.8255 128.678C84.2185 128.995 84.7109 129.153 85.3027 129.153ZM100.407 116.455V131H97.7725V116.455H100.407ZM103.147 131V120.091H105.605V121.945H105.732C105.96 121.32 106.336 120.832 106.862 120.482C107.387 120.126 108.015 119.949 108.744 119.949C109.482 119.949 110.105 120.129 110.612 120.489C111.123 120.844 111.483 121.329 111.691 121.945H111.805C112.046 121.339 112.454 120.856 113.026 120.496C113.604 120.131 114.288 119.949 115.079 119.949C116.083 119.949 116.902 120.266 117.536 120.901C118.171 121.535 118.488 122.461 118.488 123.678V131H115.91V124.075C115.91 123.398 115.73 122.903 115.37 122.591C115.01 122.274 114.57 122.115 114.049 122.115C113.429 122.115 112.944 122.309 112.593 122.697C112.248 123.081 112.075 123.58 112.075 124.196V131H109.553V123.969C109.553 123.405 109.383 122.955 109.042 122.619C108.706 122.283 108.266 122.115 107.721 122.115C107.352 122.115 107.016 122.21 106.713 122.399C106.41 122.584 106.168 122.847 105.988 123.188C105.808 123.524 105.718 123.917 105.718 124.366V131H103.147ZM124.236 131.22C123.544 131.22 122.922 131.097 122.368 130.851C121.818 130.6 121.383 130.231 121.061 129.743C120.744 129.255 120.585 128.654 120.585 127.939C120.585 127.323 120.699 126.814 120.926 126.412C121.153 126.009 121.463 125.688 121.856 125.446C122.249 125.205 122.692 125.022 123.184 124.899C123.682 124.771 124.195 124.679 124.726 124.622C125.365 124.556 125.883 124.497 126.281 124.445C126.679 124.388 126.968 124.303 127.148 124.189C127.332 124.071 127.425 123.888 127.425 123.642V123.599C127.425 123.064 127.266 122.65 126.949 122.357C126.631 122.063 126.175 121.916 125.578 121.916C124.948 121.916 124.449 122.054 124.079 122.328C123.715 122.603 123.469 122.927 123.341 123.301L120.94 122.96C121.13 122.297 121.442 121.743 121.878 121.298C122.313 120.848 122.846 120.512 123.476 120.29C124.105 120.062 124.801 119.949 125.564 119.949C126.089 119.949 126.613 120.01 127.133 120.134C127.654 120.257 128.13 120.46 128.561 120.744C128.992 121.024 129.337 121.405 129.598 121.888C129.863 122.371 129.996 122.974 129.996 123.699V131H127.524V129.501H127.439C127.282 129.804 127.062 130.089 126.778 130.354C126.499 130.614 126.146 130.825 125.72 130.986C125.299 131.142 124.804 131.22 124.236 131.22ZM124.903 129.331C125.419 129.331 125.867 129.229 126.246 129.026C126.624 128.817 126.916 128.543 127.119 128.202C127.327 127.861 127.432 127.489 127.432 127.087V125.801C127.351 125.867 127.214 125.929 127.02 125.986C126.83 126.043 126.617 126.092 126.381 126.135C126.144 126.178 125.909 126.215 125.677 126.249C125.445 126.282 125.244 126.31 125.074 126.334C124.69 126.386 124.347 126.471 124.044 126.589C123.741 126.708 123.502 126.874 123.327 127.087C123.151 127.295 123.064 127.565 123.064 127.896C123.064 128.37 123.237 128.727 123.582 128.969C123.928 129.21 124.368 129.331 124.903 129.331ZM137.325 135.318C136.402 135.318 135.609 135.193 134.946 134.942C134.283 134.696 133.75 134.364 133.348 133.947C132.945 133.531 132.666 133.069 132.51 132.562L134.825 132.001C134.929 132.214 135.081 132.425 135.28 132.634C135.479 132.847 135.746 133.022 136.082 133.159C136.423 133.301 136.852 133.372 137.368 133.372C138.097 133.372 138.701 133.195 139.179 132.839C139.657 132.489 139.896 131.911 139.896 131.107V129.04H139.768C139.636 129.305 139.442 129.577 139.186 129.857C138.935 130.136 138.601 130.37 138.184 130.56C137.773 130.749 137.254 130.844 136.629 130.844C135.791 130.844 135.031 130.647 134.349 130.254C133.672 129.857 133.132 129.265 132.73 128.479C132.332 127.688 132.133 126.698 132.133 125.51C132.133 124.312 132.332 123.301 132.73 122.477C133.132 121.649 133.675 121.021 134.356 120.595C135.038 120.164 135.798 119.949 136.636 119.949C137.275 119.949 137.801 120.058 138.213 120.276C138.63 120.489 138.961 120.747 139.207 121.05C139.453 121.348 139.64 121.63 139.768 121.895H139.91V120.091H142.446V131.178C142.446 132.11 142.223 132.882 141.778 133.493C141.333 134.104 140.725 134.561 139.953 134.864C139.181 135.167 138.305 135.318 137.325 135.318ZM137.346 128.827C137.891 128.827 138.355 128.694 138.738 128.429C139.122 128.164 139.413 127.783 139.612 127.286C139.811 126.788 139.91 126.192 139.91 125.496C139.91 124.809 139.811 124.208 139.612 123.692C139.418 123.176 139.129 122.776 138.746 122.491C138.367 122.203 137.9 122.058 137.346 122.058C136.773 122.058 136.295 122.207 135.912 122.506C135.528 122.804 135.239 123.214 135.045 123.734C134.851 124.25 134.754 124.838 134.754 125.496C134.754 126.163 134.851 126.748 135.045 127.25C135.244 127.747 135.535 128.135 135.919 128.415C136.307 128.689 136.783 128.827 137.346 128.827ZM149.91 131.213C148.817 131.213 147.872 130.986 147.077 130.531C146.286 130.072 145.677 129.423 145.251 128.585C144.825 127.742 144.612 126.75 144.612 125.609C144.612 124.487 144.825 123.502 145.251 122.655C145.682 121.803 146.283 121.14 147.055 120.666C147.827 120.188 148.734 119.949 149.775 119.949C150.448 119.949 151.082 120.058 151.679 120.276C152.28 120.489 152.81 120.82 153.27 121.27C153.734 121.72 154.098 122.293 154.363 122.989C154.629 123.68 154.761 124.504 154.761 125.46V126.249H145.819V124.516H152.297C152.292 124.023 152.185 123.585 151.977 123.202C151.769 122.813 151.478 122.508 151.104 122.286C150.734 122.063 150.303 121.952 149.811 121.952C149.285 121.952 148.824 122.08 148.426 122.335C148.028 122.586 147.718 122.918 147.496 123.33C147.278 123.737 147.166 124.184 147.162 124.672V126.185C147.162 126.819 147.278 127.364 147.51 127.818C147.742 128.268 148.066 128.614 148.483 128.855C148.899 129.092 149.387 129.21 149.946 129.21C150.32 129.21 150.658 129.158 150.961 129.054C151.265 128.945 151.527 128.786 151.75 128.578C151.972 128.37 152.14 128.112 152.254 127.804L154.655 128.074C154.503 128.708 154.214 129.262 153.788 129.736C153.367 130.205 152.827 130.569 152.169 130.83C151.511 131.085 150.758 131.213 149.91 131.213Z" fill="#46A358"/>
<path d="M110 45C92.3253 45 78 59.3253 78 76.9999C78 93.5506 90.5677 107.167 106.681 108.826C105.708 100.815 106.07 94.2597 107.307 88.8736C106.613 85.5317 105.036 80.5831 101.461 77.0678C101.461 77.0678 103.814 80.5982 105.089 85.3432C105.089 85.3507 105.097 85.3582 105.097 85.3658C105.232 85.8712 105.353 86.3842 105.459 86.9122C105.481 87.0329 105.504 87.1536 105.527 87.2819C105.625 87.825 105.715 88.3681 105.776 88.9264C87.6935 86.7085 83.8388 70.4823 84.2612 64.3644C103.497 65.4281 107.435 78.2673 108.008 86.2333C114.307 65.6016 134.321 64.4097 135.973 64.3644C136.689 80.2211 124.929 92.585 110.868 93.6637C110.958 93.2338 111.064 92.8038 111.169 92.3813C111.199 92.2531 111.237 92.1324 111.275 92.0042C111.358 91.7024 111.441 91.4007 111.539 91.0989C111.577 90.9707 111.622 90.8349 111.66 90.7067C111.765 90.3747 111.878 90.0504 111.992 89.7184C112.022 89.643 112.044 89.5676 112.074 89.4921C112.218 89.0999 112.369 88.7227 112.52 88.3455C112.535 88.3153 112.542 88.2776 112.557 88.2474C112.557 88.2474 112.557 88.2474 112.565 88.2474C116.171 79.527 122.824 73.8165 122.824 73.8165C109.766 81.3601 107.563 100.973 107.216 108.857C108.137 108.94 109.057 109 110 109C127.675 109 142 94.6746 142 76.9999C142 59.3253 127.675 45 110 45Z" fill="#46A358"/>
</svg>
